{"title":"BBC.Glastonbury.2013.06.28.720p.HDTV.XviD.AC3","uid":10012884,"size":6585655312,"categoryP":"video","categoryS":"hd___movies","magnet":"?xt=urn:btih:dc47d17e3ac6274c62912d2bcbe1d634ad16b1e1&amp;dn=BBC.Glastonbury.2013.06.28.720p.HDTV.XviD.AC3&amp;tr=udp%3A%2F%2Ftracker.openbittorrent.com%3A80&amp;tr=udp%3A%2F%2Fopen.demonii.com%3A1337&amp;tr=udp%3A%2F%2Ftracker.coppersurfer.tk%3A6969&amp;tr=udp%3A%2F%2Fexodus.desync.com%3A6969","seeders":0,"leechers":2,"uploader":"user101966","files":3,"time":1398121157,"description":"I downloaded this content as two .TS (transmission stream) files which correspond to part of the BBC coverage of the first day (June 28th) of the annual music festival at Glastonbury 2013. I haven't actually watched the entire thing, I downloaded it and converted it to 720p XviD/AC3 as a demonstration in a tutorial video about using VirtualDub (and in this case Avidemux).\n\nSo, I don't plan to keep seeding this but since I've prepared it (and the quality is phenomenal) I thought it would be a shame to delete the file before giving people a chance to download and seed it for general purpose playback and use. Being an AVI in XviD/AC3 format makes this file compatible with pretty much all DVD players and home computers that can handle a video data rate of 4 Kbps (that's crystal-clear HDTV but not so resource-demanding as to bog down a low-end modern system).\n\nI will keep seeding this until I see another stable seed then I will delete the file in order to recover hard drive space.\n\n******************************************************\nNOTE: Included is a sample from the video so you can get an idea of the actual quality before committing to a 6 Gig download.\n******************************************************\n\nGeneral\nComplete name                            : BBC.Glastonbury.2013.06.28.avi\nFormat                                   : AVI\nFormat/Info                              : Audio Video Interleave\nFormat profile                           : OpenDML\nFile size                                : 6.06 GiB\nDuration                                 : 3h 26mn\nOverall bit rate                         : 4 200 Kbps\nWriting application                      : MEncoder r33883\nWriting library                          : VirtualDub build 32842/release\n\nVideo\nID                                       : 0\nFormat                                   : MPEG-4 Visual\nFormat profile                           : Simple@L3\nFormat settings, BVOP                    : No\nFormat settings, QPel                    : No\nFormat settings, GMC                     : No warppoints\nFormat settings, Matrix                  : Default (H.263)\nCodec ID                                 : XVID\nCodec ID/Hint                            : XviD\nDuration                                 : 3h 26mn\nBit rate                                 : 4 000 Kbps\nWidth                                    : 1 280 pixels\nHeight                                   : 720 pixels\nDisplay aspect ratio                     : 16:9\nFrame rate                               : 25.000 fps\nColor space                              : YUV\nChroma subsampling                       : 4:2:0\nBit depth                                : 8 bits\nScan type                                : Progressive\nCompression mode                         : Lossy\nBits/(Pixel*Frame)                       : 0.174\nStream size                              : 5.77 GiB (95%)\nWriting library                          : XviD 63\n\nAudio\nID                                       : 1\nFormat                                   : AC-3\nFormat/Info                              : Audio Coding 3\nMode extension                           : CM (complete main)\nFormat settings, Endianness              : Big\nCodec ID                                 : 2000\nDuration                                 : 3h 26mn\nBit rate mode                            : Constant\nBit rate                                 : 192 Kbps\nChannel(s)                               : 2 channels\nChannel positions                        : Front: L R\nSampling rate                            : 48.0 KHz\nBit depth                                : 16 bits\nCompression mode                         : Lossy\nStream size                              : 283 MiB (5%)\nAlignment                                : Split accross interleaves\nInterleave, duration                     : 40 ms (1.00 video frame)\nInterleave, preload duration             : 500 ms\n","torrent":{"xt":"urn:btih:dc47d17e3ac6274c62912d2bcbe1d634ad16b1e1","amp;dn":"BBC.Glastonbury.2013.06.28.720p.HDTV.XviD.AC3","amp;tr":["udp%3A%2F%2Ftracker.openbittorrent.com%3A80","udp%3A%2F%2Fopen.demonii.com%3A1337","udp%3A%2F%2Ftracker.coppersurfer.tk%3A6969","udp%3A%2F%2Fexodus.desync.com%3A6969"],"infoHash":"dc47d17e3ac6274c62912d2bcbe1d634ad16b1e1","infoHashBuffer":{"type":"Buffer","data":[220,71,209,126,58,198,39,76,98,145,45,43,203,225,214,52,173,22,177,225]},"announce":[],"urlList":[]}}